<svg xmlns:xlink="http://www.w3.org/1999/xlink" width="32" height="32" viewBox="0 0 32 32" fill="none" xmlns="http://www.w3.org/2000/svg"><path d="M4 6.00977L7.06006 6.03564" stroke="#555555" stroke-width="0.75px" stroke-miterlimit="10" fill="none"></path><path d="M10.5017 19.4331L6.98779 6" stroke="#555555" stroke-width="0.75px" stroke-miterlimit="10" fill="none"></path><path d="M25.3079 19.459H10.4741" stroke="#555555" stroke-width="0.75px" stroke-miterlimit="10" fill="none"></path><path d="M27.6921 9.14551L25 19.4593" stroke="#555555" stroke-width="0.75px" stroke-miterlimit="10" fill="none"></path><path d="M7.83008 9.21973H28.0002" stroke="#555555" stroke-width="0.75px" stroke-miterlimit="10" fill="none"></path><path d="M24.9522 23.3721H10.5337" stroke="#555555" stroke-width="0.75px" stroke-miterlimit="10" fill="none"></path><path d="M12.3115 27C13.2933 27 14.0892 26.1879 14.0892 25.1861C14.0892 24.1842 13.2933 23.3721 12.3115 23.3721C11.3296 23.3721 10.5337 24.1842 10.5337 25.1861C10.5337 26.1879 11.3296 27 12.3115 27Z" stroke="#555555" stroke-width="0.75px" stroke-miterlimit="10" fill="none"></path><path d="M21.5288 27C22.5106 27 23.3065 26.1879 23.3065 25.1861C23.3065 24.1842 22.5106 23.3721 21.5288 23.3721C20.5469 23.3721 19.751 24.1842 19.751 25.1861C19.751 26.1879 20.5469 27 21.5288 27Z" stroke="#555555" stroke-width="0.75px" stroke-miterlimit="10" fill="none"></path><path d="M10.5305 19.4326C10.5305 19.4326 9.43205 20.8431 9.61288 22.024C9.73986 22.8533 10.5848 23.3716 10.5848 23.3716" stroke="#555555" stroke-width="0.75px" stroke-miterlimit="10" fill="none"></path></svg>