<svg width="32" height="32" fill="none" xmlns="http://www.w3.org/2000/svg"><path d="M23.069 15.73a10.055 10.055 0 00-3.9-2.409 5.2 5.2 0 10-6.337.002A9.934 9.934 0 006 22.8V26a2.002 2.002 0 002 2h15.998a2.002 2.002 0 002-2v-3.2a9.95 9.95 0 00-2.93-7.07zm-11.47-6.528a4.4 4.4 0 115.96 4.113l-.069.024a4.577 4.577 0 01-.403.123l-.106.025a4.46 4.46 0 01-.396.07 4.485 4.485 0 01-1.08.013c-.03-.003-.06-.008-.09-.013a4.553 4.553 0 01-.91-.22l-.069-.022A4.382 4.382 0 0111.6 9.202zM25.2 26a1.2 1.2 0 01-1.2 1.2h-16A1.2 1.2 0 016.8 26v-3.2a9.144 9.144 0 016.493-8.79c.114-.035.232-.053.35-.053.158 0 .313.03.46.088l.033.01c.054.022.11.038.165.057.12.04.24.08.36.112a5.722 5.722 0 00.55.112c.08.012.16.025.244.033.14.015.282.022.424.025.04 0 .08.007.12.007.04 0 .08-.006.122-.007.141-.003.28-.01.422-.025.082-.008.164-.021.246-.034a4.888 4.888 0 00.914-.225c.052-.018.105-.033.156-.053l.037-.012a1.23 1.23 0 01.806-.037 9.2 9.2 0 016.496 8.793V26z" fill="#555"/></svg>